<?xml version="1.0" encoding="UTF-8" standalone="no"?>
<svg
     xmlns:dc="http://purl.org/dc/elements/1.1/"
     xmlns:cc="http://creativecommons.org/ns#"
     xmlns:rdf="http://www.w3.org/1999/02/22-rdf-syntax-ns#"
     xmlns:svg="http://www.w3.org/2000/svg"
     xmlns="http://www.w3.org/2000/svg"
     version="1.1"
     id="svg49749"
     viewBox="0 0 300 70.067498"
     height="70.067497"
     width="300">
    <defs
         id="defs49751">
        <clipPath
             id="clipPath49125"
             clipPathUnits="userSpaceOnUse">
            <path
                 id="path49127"
                 d="m 692.697,746 173.733,0 0,54.294 -173.733,0 0,-54.294 z" />
        </clipPath>
        <clipPath
             id="clipPath49101"
             clipPathUnits="userSpaceOnUse">
            <path
                 id="path49103"
                 d="m 706.23,757.475 145.453,0 0,33.224 -145.453,0 0,-33.224 z" />
        </clipPath>
    </defs>
    <metadata
         id="metadata49754">
        <rdf:RDF>
            <cc:Work
                 rdf:about="">
                <dc:format>image/svg+xml</dc:format>
                <dc:type
                     rdf:resource="http://purl.org/dc/dcmitype/StillImage" />
                <dc:title></dc:title>
            </cc:Work>
        </rdf:RDF>
    </metadata>
    <g
         transform="translate(-413.80671,-484.05942)"
         id="layer1">
        <g
             id="g49097"
             transform="matrix(2.0487844,0,0,-2.0487844,-1032.1063,2105.0312)">
            <g
                 clip-path="url(#clipPath49101)"
                 id="g49099">
                <g
                     transform="translate(717.83569,765.202)"
                     id="g49105">
                    <path
                         id="path49107"
                         style="fill:#1d439c;fill-opacity:1;fill-rule:nonzero;stroke:none"
                         d="m 0,0 c -2.386,0 -4.579,0.817 -6.318,2.187 2.022,4.564 6.142,10.687 11.76,16.667 2.868,-1.809 4.773,-5.003 4.773,-8.643 0,-1.554 -0.35,-3.028 -0.971,-4.347 C 7.462,6.689 5.8,7.721 4.39,9.024 L 7.468,3.246 C 5.603,1.248 2.949,0 0,0 m -10.212,10.211 c 0,5.643 4.571,10.214 10.212,10.214 1.512,0 2.945,-0.329 4.239,-0.917 C -1.296,14.616 -5.582,8.93 -8.118,4.016 -9.431,5.737 -10.212,7.88 -10.212,10.211 M 10.527,5.316 c 0.695,1.487 1.081,3.147 1.081,4.895 0,4.035 -2.059,7.589 -5.185,9.669 1.862,1.916 3.877,3.809 6.022,5.618 C 9.931,24.019 7.569,22.326 5.386,20.497 3.777,21.341 1.944,21.821 0,21.821 c -6.409,0 -11.606,-5.2 -11.606,-11.61 0,-2.893 1.06,-5.543 2.813,-7.573 -2.224,-4.809 -2.613,-8.671 -0.653,-9.977 2.097,-1.399 6.659,1.137 9.397,5.267 0,0 -4.234,-3.82 -6.56,-2.944 -1.431,0.542 -1.436,2.731 -0.256,5.87 1.924,-1.414 4.296,-2.249 6.865,-2.249 3.181,0 6.06,1.278 8.157,3.348 L 8.569,1.177 c 5.059,0.411 20.164,0.811 20.164,0.811 0,0.725 -10.001,0.067 -18.206,3.328" />
                </g>
            </g>
        </g>
        <g
             transform="matrix(2.0487844,0,0,-2.0487844,602.03179,514.19056)"
             id="g49109">
            <path
                 id="path49111"
                 style="fill:#1d439c;fill-opacity:1;fill-rule:evenodd;stroke:none"
                 d="m 0,0 1.891,2.512 -6.587,0.002 1.623,2.152 6.587,0 1.896,2.511 -13.153,0 -9.048,-12.007 13.155,0 1.889,2.514 -6.585,0 L -6.591,0 0,0 Z" />
        </g>
        <g
             transform="matrix(2.0487844,0,0,-2.0487844,620.74747,499.48661)"
             id="g49113">
            <path
                 id="path49115"
                 style="fill:#1d439c;fill-opacity:1;fill-rule:evenodd;stroke:none"
                 d="m 0,0 -9.044,-12.007 6.562,0 L 6.564,0 0,0 Z" />
        </g>
        <g
             transform="matrix(2.0487844,0,0,-2.0487844,665.54498,499.48661)"
             id="g49117">
            <path
                 id="path49119"
                 style="fill:#1d439c;fill-opacity:1;fill-rule:evenodd;stroke:none"
                 d="M 0,0 -4.584,-6.087 -5.994,0 l -5.129,0 -9.046,-12.007 4.341,0 4.546,6.033 1.396,-6.033 5.183,0 L 4.345,0 0,0 Z" />
        </g>
        <g
             id="g49121"
             transform="matrix(2.0487844,0,0,-2.0487844,-1032.1063,2105.0312)">
            <g
                 clip-path="url(#clipPath49125)"
                 id="g49123">
                <g
                     transform="translate(850.0741,783.6571)"
                     id="g49129">
                    <path
                         id="path49131"
                         style="fill:#1d439c;fill-opacity:1;fill-rule:nonzero;stroke:none"
                         d="m 0,0 -10.55,0.002 c -1.805,0 -3.406,-0.865 -4.418,-2.206 l -5.445,-7.227 c -0.205,-0.268 -0.324,-0.603 -0.324,-0.966 0,-0.888 0.719,-1.61 1.607,-1.61 l 10.548,0 c 1.807,0 3.412,0.866 4.422,2.206 l 1.308,1.735 1.524,0 1.905,2.53 -8.08,0 -2.551,-3.384 c -0.261,-0.349 -0.678,-0.573 -1.146,-0.573 l -1.857,0 c -0.235,0 -0.421,0.188 -0.421,0.418 0,0.096 0.032,0.183 0.086,0.25 l 4.326,5.743 c 0.261,0.349 0.677,0.571 1.146,0.571 l 1.859,0 c 0.233,0 0.419,-0.187 0.419,-0.417 0,-0.092 -0.034,-0.181 -0.086,-0.253 l -0.702,-0.933 6.556,0 1.16,1.541 c 0.201,0.267 0.322,0.6 0.322,0.965 C 1.608,-0.72 0.886,0 0,0" />
                </g>
                <g
                     transform="translate(777.155,780.47639)"
                     id="g49133">
                    <path
                         id="path49135"
                         style="fill:#1d439c;fill-opacity:1;fill-rule:nonzero;stroke:none"
                         d="m 0,0 -4.328,-5.74 c -0.261,-0.348 -0.675,-0.572 -1.146,-0.572 l -1.859,0 c -0.229,0 -0.415,0.187 -0.415,0.416 0,0.098 0.032,0.185 0.082,0.252 l 4.326,5.741 c 0.265,0.345 0.68,0.573 1.147,0.573 l 1.86,0 C -0.102,0.67 0.084,0.482 0.084,0.253 0.084,0.161 0.052,0.072 0,0 m 7.334,1.573 c 0,0.887 -0.718,1.608 -1.608,1.608 l -10.543,0 c -1.807,0 -3.41,-0.863 -4.422,-2.204 l -5.446,-7.227 c -0.203,-0.27 -0.322,-0.603 -0.322,-0.967 0,-0.887 0.718,-1.609 1.606,-1.609 l 10.545,0 c 1.809,0 3.414,0.866 4.424,2.206 l 5.445,7.226 c 0.202,0.268 0.321,0.602 0.321,0.967" />
                </g>
                <g
                     transform="translate(757.11,780.47639)"
                     id="g49137">
                    <path
                         id="path49139"
                         style="fill:#1d439c;fill-opacity:1;fill-rule:nonzero;stroke:none"
                         d="M 0,0 -0.692,-0.916 C -0.955,-1.26 -1.368,-1.484 -1.839,-1.484 l -2.695,0.002 1.625,2.152 2.574,0 C -0.106,0.67 0.082,0.482 0.082,0.253 0.082,0.161 0.052,0.072 0,0 m -3.519,-4.665 -0.812,-1.077 c -0.261,-0.346 -0.675,-0.57 -1.146,-0.57 l -2.693,0 1.743,2.316 2.576,0 c 0.23,0 0.417,-0.186 0.417,-0.417 0,-0.096 -0.032,-0.183 -0.085,-0.252 m 6.092,1.55 c 1.293,0.291 2.418,1.04 3.189,2.065 l 1.247,1.656 c 0.203,0.268 0.324,0.602 0.324,0.967 0,0.887 -0.719,1.608 -1.607,1.608 l -6.743,0 -6.564,0 -9.046,-12.007 6.447,0 7.321,0 c 1.809,0 3.413,0.866 4.423,2.206 l 1.276,1.694 c 0.165,0.213 0.257,0.484 0.257,0.772 0,0.427 -0.208,0.803 -0.524,1.039" />
                </g>
            </g>
        </g>
    </g>
</svg>
